<?xml version="1.0" encoding="UTF-8" standalone="no"?>
<svg
   xmlns:dc="http://purl.org/dc/elements/1.1/"
   xmlns:cc="http://creativecommons.org/ns#"
   xmlns:rdf="http://www.w3.org/1999/02/22-rdf-syntax-ns#"
   xmlns:svg="http://www.w3.org/2000/svg"
   xmlns="http://www.w3.org/2000/svg"
   xmlns:sodipodi="http://sodipodi.sourceforge.net/DTD/sodipodi-0.dtd"
   xmlns:inkscape="http://www.inkscape.org/namespaces/inkscape"
   width="31cm"
   height="8cm"
   viewBox="-141 -12 611 153"
   id="svg2"
   version="1.1"
   inkscape:version="0.48.3.1 r9886"
   sodipodi:docname="logo.svg">
  <metadata
     id="metadata138">
    <rdf:RDF>
      <cc:Work
         rdf:about="">
        <dc:format>image/svg+xml</dc:format>
        <dc:type
           rdf:resource="http://purl.org/dc/dcmitype/StillImage" />
        <dc:title></dc:title>
      </cc:Work>
    </rdf:RDF>
  </metadata>
  <defs
     id="defs136" />
  <sodipodi:namedview
     pagecolor="#ffffff"
     bordercolor="#666666"
     borderopacity="1"
     objecttolerance="10"
     gridtolerance="10"
     guidetolerance="10"
     inkscape:pageopacity="0"
     inkscape:pageshadow="2"
     inkscape:window-width="1920"
     inkscape:window-height="1032"
     id="namedview134"
     showgrid="false"
     inkscape:zoom="3.47"
     inkscape:cx="340.66457"
     inkscape:cy="74.5811"
     inkscape:window-x="0"
     inkscape:window-y="24"
     inkscape:window-maximized="1"
     inkscape:current-layer="svg2" />
  <g
     id="grid">
    <line
       style="fill:none;stroke:#0000ff;stroke-width:2"
       x1="-140"
       y1="80"
       x2="-20"
       y2="80"
       id="line6" />
    <line
       style="fill:none;stroke:#0000ff;stroke-width:2"
       x1="-140"
       y1="100"
       x2="-20"
       y2="100"
       id="line8" />
    <line
       style="fill:none;stroke:#0000ff;stroke-width:2"
       x1="-140"
       y1="120"
       x2="-20"
       y2="120"
       id="line10" />
    <line
       style="fill:none;stroke:#0000ff;stroke-width:2"
       x1="-140"
       y1="140"
       x2="-20"
       y2="140"
       id="line12" />
    <line
       style="fill:none;stroke:#0000ff;stroke-width:2"
       x1="-140"
       y1="60"
       x2="-20"
       y2="60"
       id="line14" />
    <line
       style="fill:none;stroke:#0000ff;stroke-width:2"
       x1="-140"
       y1="40"
       x2="-20"
       y2="40"
       id="line16" />
    <line
       style="fill:none;stroke:#0000ff;stroke-width:2"
       x1="-140"
       y1="20"
       x2="-20"
       y2="20"
       id="line18" />
    <line
       style="fill:none;stroke:#0000ff;stroke-width:2"
       x1="-140"
       y1="8.8817801e-14"
       x2="-20"
       y2="8.8817801e-14"
       id="line20" />
    <line
       style="fill:none;stroke:#0000ff;stroke-width:2"
       x1="-140"
       y1="8.8817801e-14"
       x2="-140"
       y2="140"
       id="line22" />
    <line
       style="fill:none;stroke:#0000ff;stroke-width:2"
       x1="-120"
       y1="8.8817801e-14"
       x2="-120"
       y2="140"
       id="line24" />
    <line
       style="fill:none;stroke:#0000ff;stroke-width:2"
       x1="-100"
       y1="8.8817801e-14"
       x2="-100"
       y2="140"
       id="line26" />
    <line
       style="fill:none;stroke:#0000ff;stroke-width:2"
       x1="-80"
       y1="8.8817801e-14"
       x2="-80"
       y2="140"
       id="line28" />
    <line
       style="fill:none;stroke:#0000ff;stroke-width:2"
       x1="-60"
       y1="8.8817801e-14"
       x2="-60"
       y2="140"
       id="line30" />
    <line
       style="fill:none;stroke:#0000ff;stroke-width:2"
       x1="-40"
       y1="8.8817801e-14"
       x2="-40"
       y2="140"
       id="line32" />
    <line
       style="fill:none;stroke:#0000ff;stroke-width:2"
       x1="-20"
       y1="8.8817801e-14"
       x2="-20"
       y2="140"
       id="line34" />
  </g>
  <path
     style="fill:none;stroke:#000000;stroke-width:2"
     d="m 0,130 12,-16 c 4.467466,3.17047 9.805608,5.10081 15.267621,5.52097 5.462014,0.42016 11.032585,-0.67104 15.932391,-3.12095 C 52.999625,111.50022 59.711793,100.95251 60,90 59.873164,84.799746 57.678227,79.678229 53.999999,76.000001 50.321771,72.321773 45.200254,70.126836 40,70 29.103241,70.184963 18.25423,64.8371 11.764522,56.081718 5.2748146,47.326337 3.3131165,35.391041 6.6589327,25.019011 10.004749,14.64698 18.571107,6.107831 28.953741,2.7951407 39.336375,-0.51754957 51.265379,1.4823337 60,8 L 48,24 c -3.690031,-2.745543 -8.734303,-3.568305 -13.105496,-2.137608 -4.371194,1.430696 -7.952803,5.076719 -9.305416,9.472712 -1.352614,4.395993 -0.440182,9.424797 2.37063,13.065341 C 30.77053,48.04099 35.404804,50.196243 40,50 50.400507,50.253673 60.643542,54.643545 67.999998,62.000002 75.356455,69.356458 79.746327,79.599493 80,90 c 0.02627,9.236805 -2.574482,18.46669 -7.419399,26.33091 -4.844917,7.86423 -11.918899,14.33829 -20.180582,18.46913 -8.261683,4.13084 -17.685319,5.90559 -26.883649,5.06299 C 16.31804,139.02043 7.3736816,135.5631 0,130"
     id="S"
     inkscape:connector-curvature="0"
     sodipodi:nodetypes="ccsscscsssccssscscsssc" />
  <path
     style="fill:none;stroke:#000000;stroke-width:2"
     d="m 104,100 c 5.20025,0.12684 10.32177,2.32177 14,6 3.67823,3.67823 5.87316,8.79975 6,14 0.12684,5.20025 2.32177,10.32177 6,14 3.67823,3.67823 8.79975,5.87316 14,6 l 0,-20 C 143.74633,109.59949 139.35645,99.356458 132,92.000002 124.64354,84.643545 114.40051,80.253673 104,80 l 0,-60 C 103.87316,14.799746 101.67823,9.6782291 97.999999,6.0000009 94.321771,2.3217727 89.200254,0.12683626 84,0 l 0,140 c 5.200254,-0.12684 10.321771,-2.32177 13.999999,-6 3.678231,-3.67823 5.873161,-8.79975 6.000001,-14 l 0,-20"
     id="h"
     inkscape:connector-curvature="0"
     sodipodi:nodetypes="cscsccsccsccscc" />
  <path
     style="fill:none;stroke:#000000;stroke-width:3.59549975"
     d="m 591.46875,133.65625 c -39.71479,0 -71.90625,32.19146 -71.90625,71.90625 0,39.71479 32.19146,71.90625 71.90625,71.90625 16.32575,0 31.36718,-5.45822 43.4375,-14.625 1.0132,1.34744 2.0883,2.6508 3.28125,3.84375 6.61254,6.61254 15.83875,10.55322 25.1875,10.78125 l 0,-71.90625 0,-71.90625 -35.96875,0 0,9.625 c -10.57623,-6.11724 -22.84097,-9.625 -35.9375,-9.625 z m 0,35.9375 c 19.8574,0 35.9375,16.11135 35.9375,35.96875 0,19.8574 -16.0801,35.9375 -35.9375,35.9375 -19.8574,0 -35.96875,-16.0801 -35.96875,-35.9375 0,-19.8574 16.11135,-35.96875 35.96875,-35.96875 z"
     transform="matrix(0.55625091,0,0,0.55625091,-141,-14.338712)"
     id="a"
     inkscape:connector-curvature="0" />
  <path
     style="fill:none;stroke:#000000;stroke-width:3.59549975"
     d="m 738.875,133.53125 c -11.22738,-0.0563 -22.41089,2.79236 -32.34375,8.03125 l 0,-7.90625 -35.96875,0 0,64.28125 c -0.14198,2.53431 -0.15316,5.0886 0,7.625 l 0,71.90625 c 9.34875,-0.22803 18.54371,-4.16871 25.15625,-10.78125 6.61254,-6.61254 10.58447,-15.83875 10.8125,-25.1875 l 0,-35.9375 c 0.22803,-9.34876 4.16871,-18.57497 10.78125,-25.1875 6.61254,-6.61253 15.8075,-10.55323 25.15625,-10.78125 l 0,-35.9375 c -1.19483,-0.0721 -2.39766,-0.119 -3.59375,-0.125 z"
     transform="matrix(0.55625091,0,0,0.55625091,-141,-14.338712)"
     id="r"
     inkscape:connector-curvature="0" />
  <path
     style="fill:none;stroke:#000000;stroke-width:3.59549975"
     d="m 804.09375,116.125 c -7.23526,-0.0892 -14.49554,1.27583 -21.1875,4.03125 -9.73377,4.00788 -18.21791,10.95313 -24.09375,19.6875 -5.87584,8.73437 -9.11221,19.22321 -9.15625,29.75 l 0,53.9375 c 0.342,14.02313 6.26868,27.8312 16.1875,37.75 9.9188,9.91882 23.72687,15.8455 37.75,16.1875 4.67438,-0.114 9.28749,-2.09997 12.59375,-5.40625 3.30628,-3.30626 5.26102,-7.88812 5.375,-12.5625 l 0,-18 -17.96875,0 c -4.67438,-0.114 -9.28749,-2.06872 -12.59375,-5.375 -3.30628,-3.30626 -5.26102,-7.91937 -5.375,-12.59375 l 17.96875,0 c 10.5268,-0.044 21.01563,-3.28041 29.75,-9.15625 8.73437,-5.87584 15.67963,-14.35998 19.6875,-24.09375 4.00789,-9.73377 5.06482,-20.67789 3,-31 -2.06484,-10.32211 -7.2439,-19.9939 -14.6875,-27.4375 -7.4436,-7.4436 -17.1154,-12.62267 -27.4375,-14.6875 -3.22566,-0.64526 -6.52374,-0.9907 -9.8125,-1.03125 z m -1,35.71875 c 4.81206,-0.0609 9.6821,1.74461 13.09375,5.15625 4.96238,4.96239 6.54691,13.01083 3.875,19.5 -2.67191,6.48917 -9.45091,11.03314 -16.46875,11.0625 l -17.96875,0 0,-17.96875 c 0.0294,-7.01785 4.57334,-13.79684 11.0625,-16.46875 2.02787,-0.83497 4.21895,-1.25357 6.40625,-1.28125 z"
     transform="matrix(0.55625091,0,0,0.55625091,-141,-14.338712)"
     id="e"
     inkscape:connector-curvature="0" />
  <polygon
     style="fill:none;stroke:#000000;stroke-width:2"
     points="340,20 320,20 320,6.21725e-14 380,6.21725e-14 380,20 360,20 360,120 380,120 380,140 320,140 320,120 340,120 "
     id="I" />
  <path
     style="fill:none;stroke:#000000;stroke-width:2"
     d="m 414,140 c -7.80038,-0.19024 -15.48267,-3.48264 -21.00001,-8.99999 C 387.48264,125.48267 384.19024,117.80038 384,110 l 0,-66 -20,0 0,-20 20,0 0,-20 20,0 0,20 20,0 0,20 -20,0 0,66 c 0.0634,2.60013 1.16087,5.1609 2.99999,7.00001 1.83911,1.83912 4.39988,2.93658 7.00001,2.99999 l 0,20"
     id="t"
     inkscape:connector-curvature="0"
     sodipodi:nodetypes="csccccccccccccscc" />
  <g
     id="!">
    <ellipse
       style="fill:none;stroke:#000000;stroke-width:2"
       cx="448"
       cy="120"
       rx="20"
       ry="20"
       id="ellipse130"
       sodipodi:cx="448"
       sodipodi:cy="120"
       sodipodi:rx="20"
       sodipodi:ry="20" />
    <polygon
       style="fill:none;stroke:#000000;stroke-width:2"
       points="438,92 428,-10 468,-10 458,92 "
       id="polygon132" />
  </g>
</svg>
