<?xml version="1.0" encoding="UTF-8" standalone="no"?>
<svg
   xmlns:dc="http://purl.org/dc/elements/1.1/"
   xmlns:cc="http://creativecommons.org/ns#"
   xmlns:rdf="http://www.w3.org/1999/02/22-rdf-syntax-ns#"
   xmlns:svg="http://www.w3.org/2000/svg"
   xmlns="http://www.w3.org/2000/svg"
   xmlns:sodipodi="http://sodipodi.sourceforge.net/DTD/sodipodi-0.dtd"
   xmlns:inkscape="http://www.inkscape.org/namespaces/inkscape"
   width="399.99191"
   height="399.99496"
   viewBox="-141 -12 222.49586 215.89728"
   id="svg2"
   version="1.1"
   inkscape:version="0.48.3.1 r9886"
   sodipodi:docname="favicon.svg"
   inkscape:export-filename="/home/piranna/Proyectos/Node.js/ShareIt/doc/logo/favicon.png"
   inkscape:export-xdpi="90"
   inkscape:export-ydpi="90">
  <metadata
     id="metadata138">
    <rdf:RDF>
      <cc:Work
         rdf:about="">
        <dc:format>image/svg+xml</dc:format>
        <dc:type
           rdf:resource="http://purl.org/dc/dcmitype/StillImage" />
        <dc:title></dc:title>
      </cc:Work>
    </rdf:RDF>
  </metadata>
  <defs
     id="defs136" />
  <sodipodi:namedview
     pagecolor="#ffffff"
     bordercolor="#666666"
     borderopacity="1"
     objecttolerance="10"
     gridtolerance="10"
     guidetolerance="10"
     inkscape:pageopacity="0"
     inkscape:pageshadow="2"
     inkscape:window-width="1920"
     inkscape:window-height="1032"
     id="namedview134"
     showgrid="false"
     inkscape:zoom="2"
     inkscape:cx="192.45599"
     inkscape:cy="218.12904"
     inkscape:window-x="0"
     inkscape:window-y="24"
     inkscape:window-maximized="1"
     inkscape:current-layer="svg2"
     showborder="true"
     fit-margin-top="38.2"
     fit-margin-left="4.36"
     fit-margin-right="4.36"
     fit-margin-bottom="38.2"
     borderlayer="false" />
  <g
     id="background"
     transform="translate(2.4252578,20.204152)">
    <rect
       style="fill:#ff0000;fill-opacity:1;stroke:none"
       id="background patch"
       width="10.290642"
       height="11.68127"
       x="-54.502983"
       y="40.729984"
       rx="1.0706725"
       ry="1.0182729" />
    <path
       inkscape:connector-curvature="0"
       id="background S"
       d="m -82.922706,-13.036757 c -34.844274,-1.167013 -62.618264,38.242915 -51.187504,70.84375 6.64699,22.506762 29.24603,36.535625 51.781254,39.1875 1.701351,2.705951 -2.59181,6.789827 -5.5,7.593747 -7.53258,3.1941 -13.240054,-4.900129 -20.687504,-4.656247 -12.42447,0.0096 -20.77241,11.413837 -27.02859,20.801157 -9.52662,10.25144 -6.12849,28.83416 6.71609,34.51134 33.210364,22.02566 84.501901,7.55804 100.937504,-28.78125 14.212316,-28.543055 4.152651,-67.969069 -24.59375,-83.093747 -2.141766,-1.490712 -6.97175,-1.690164 -2.875,-4.4375 6.772141,-9.076533 13.591237,-18.112325 20.46875,-27.125 -11.192822,-14.823203 -29.029729,-25.390359 -48.03125,-24.84375 z"
       style="fill:#ff0000;stroke:none" />
    <path
       inkscape:connector-curvature="0"
       id="background I"
       d="m -67.297706,-12.255507 c 0,19.3333333 0,38.666667 0,58 6.666667,0 13.333333,0 20,0 0,20 0,40 0,59.999997 -6.666667,0 -13.333333,0 -20,0 0,20 0,40 0,60 33.333333,0 66.66666685,0 100,0 0,-20 0,-40 0,-60 -6.666667,0 -13.333333,0 -20,0 0,-19.999997 0,-39.999997 0,-59.999997 6.666667,0 13.333333,0 20,0 0,-20 0,-40 0,-60 -33.33333315,0 -66.666667,0 -100,0 l 0,1 0,1 z"
       style="fill:#ff0000;stroke:none" />
    <path
       inkscape:connector-curvature="0"
       id="background !"
       d="M 35.733544,85.463243 C 7.8333869,85.030503 -12.357946,119.21986 0.38979385,143.65074 11.679586,168.11338 48.976038,173.09405 66.671044,153.02574 82.475886,136.23577 78.845897,106.58732 60.389794,93.338243 53.394082,88.010691 44.54996,85.103064 35.733544,85.463243 z"
       style="fill:#ff0000;stroke:none" />
  </g>
  <g
     id="outline"
     transform="translate(2.4252578,20.204152)">
    <path
       inkscape:connector-curvature="0"
       id="outline S"
       d="m -83.578956,2.994493 c -23.521964,0.049148 -42.359264,25.502162 -35.593754,48.03125 4.20054,17.837446 22.466894,29.985939 40.468754,28.96875 10.850136,1.874135 16.571483,15.367518 11.375,24.843747 -5.569831,14.99734 -26.87825,22.08065 -39.312504,11.5 -6.57164,-2.28193 -9.48113,6.40022 -12.625,10.25 -2.86958,3.04082 -9.21476,8.87358 -4.125,12.84375 22.28903,16.96796 57.549092,12.45482 74.437504,-10.15625 14.608378,-17.75767 15.987445,-46.678405 -0.78125,-63.531247 -9.297162,-10.228839 -23.244985,-14.015469 -36.5,-14.78125 -8.52389,-3.513467 -7.97339,-17.495747 1.125,-19.625 4.542648,-1.333339 9.363253,0.701439 12.40625,4.125 5.578427,-7.516503 11.217822,-14.987734 16.84375,-22.46875 -7.596127,-6.7005358 -17.542932,-10.3906446 -27.71875,-10 z"
       style="fill:#000000;stroke:none" />
    <path
       inkscape:connector-curvature="0"
       id="outline I"
       d="m -51.297706,3.744493 c 0,8.666667 0,17.333333 0,26 6.666667,0 13.333333,0 20,0 0,30.666667 0,61.333333 0,91.999997 -6.666667,0 -13.333333,0 -20,0 0,9.33333 0,18.66667 0,28 22.666667,0 45.3333329,0 68,0 0,-9.33333 0,-18.66667 0,-28 -6.666667,0 -13.3333331,0 -20.0000001,0 0,-30.666664 0,-61.33333 0,-91.999997 6.666667,0 13.3333331,0 20.0000001,0 0,-9.333333 0,-18.666667 0,-28 -22.6666671,0 -45.333333,0 -68,0 l 0,1 0,1 z"
       style="fill:#000000;stroke:none" />
    <g
       id="outline !">
      <path
         style="fill:#000000;stroke:none"
         d="m 35.546044,101.77574 c -16.68822,-0.0379 -28.4979281,20.44232 -20.28125,35 6.826888,14.21337 28.465281,17.54013 38.96875,5.5 11.304367,-11.26342 6.940609,-33.30702 -8.34375,-38.71875 -3.257979,-1.30713 -6.818263,-1.97141 -10.34375,-1.78125 z"
         id="path3844"
         inkscape:connector-curvature="0" />
      <path
         style="fill:#000000;stroke:none"
         d="m 12.483544,-6.068007 c 3.542584,35.936372 7.042023,71.877062 10.59375,107.812497 9.083333,0 18.166667,0 27.25,0 3.640467,-36.663049 7.212814,-73.332906 10.8125,-109.999997 -16.291667,0 -32.583333,0 -48.875,0 0.07292,0.729167 0.145833,1.458333 0.21875,2.1875 z"
         id="path3846"
         inkscape:connector-curvature="0" />
    </g>
  </g>
  <g
     id="text"
     transform="translate(2.4252578,20.204152)">
    <path
       sodipodi:nodetypes="ccsscscsssccssscscsssc"
       inkscape:connector-curvature="0"
       id="text S"
       d="m -121.42271,135.74953 12,-16 c 4.46747,3.17047 9.805614,5.10081 15.267624,5.52097 5.46202,0.42016 11.03259,-0.67104 15.932392,-3.12095 9.799613,-4.8998 16.511781,-15.44751 16.799988,-26.400019 -0.126836,-5.200254 -2.321773,-10.321771 -6.000001,-13.999999 -3.678228,-3.678228 -8.799745,-5.873165 -13.999999,-6.000001 -10.89676,0.184963 -21.745774,-5.1629 -28.235484,-13.918282 -6.48971,-8.755381 -8.4514,-20.690677 -5.10559,-31.062707 3.34582,-10.372031 11.91218,-18.91118 22.294814,-22.2238704 10.38264,-3.3126903 22.311639,-1.312807 31.04626,5.2048594 l -12,16 c -3.690031,-2.745543 -8.7343,-3.568305 -13.1055,-2.137608 -4.37119,1.430696 -7.9528,5.076719 -9.30541,9.472712 -1.35262,4.395993 -0.44018,9.424797 2.37063,13.065341 2.81081,3.640545 7.44508,5.795798 12.04028,5.599555 10.400507,0.253673 20.643542,4.643545 27.999998,12.000002 7.356457,7.356456 11.746329,17.599491 12.000002,27.999998 0.02627,9.236809 -2.574482,18.466689 -7.419399,26.330909 -4.844917,7.86423 -11.918899,14.33829 -20.180582,18.46913 -8.261683,4.13084 -17.685319,5.90559 -26.883649,5.06299 -9.198334,-0.8426 -18.142694,-4.29993 -25.516374,-9.86303"
       style="fill:#ff7f2a;stroke:none" />
    <path
       inkscape:connector-curvature="0"
       id="text I"
       d="m -27.285386,25.749531 -20,0 0,-20.0000001 60,0 0,20.0000001 -20.0000001,0 0,99.999999 20.0000001,0 0,20 -60,0 0,-20 20,0 z"
       style="fill:#ff7f2a;stroke:none" />
    <g
       style="fill:#ffffff;stroke:none"
       transform="translate(-411.29868,5.7495309)"
       id="text !">
      <path
         inkscape:connector-curvature="0"
         id="ellipse130"
         d="m 468,120 c 0,11.04569 -8.95431,20 -20,20 -11.04569,0 -20,-8.95431 -20,-20 0,-11.04569 8.95431,-20 20,-20 11.04569,0 20,8.95431 20,20 z"
         style="fill:#ffffff;stroke:none" />
      <path
         inkscape:connector-curvature="0"
         id="polygon132"
         d="m 458,92 -20,0 -10,-102 40,0 z"
         style="fill:#ffffff;stroke:none" />
    </g>
  </g>
</svg>
